<?xml version="1.0" encoding="UTF-8"?>
<svg xmlns="http://www.w3.org/2000/svg" xmlns:xlink="http://www.w3.org/1999/xlink" viewBox="0 0 24 24" width="24px" height="24px">
<g id="surface126504785">
<path style=" stroke:none;fill-rule:nonzero;fill:rgb(0%,0%,0%);fill-opacity:1;" d="M 11.9375 0.21875 C 8.964844 0.230469 6.011719 0.609375 4.476562 1.316406 C 4.476562 1.316406 1.171875 2.820312 1.171875 7.945312 C 1.171875 14.046875 1.167969 21.707031 6.648438 23.1875 C 8.746094 23.75 10.550781 23.875 12 23.789062 C 14.636719 23.640625 15.9375 22.832031 15.9375 22.832031 L 15.847656 20.886719 C 15.847656 20.886719 14.140625 21.488281 12.027344 21.421875 C 9.933594 21.347656 7.730469 21.191406 7.386719 18.574219 C 7.355469 18.332031 7.339844 18.085938 7.339844 17.839844 C 11.777344 18.941406 15.558594 18.320312 16.601562 18.195312 C 19.507812 17.839844 22.039062 16.019531 22.363281 14.351562 C 22.867188 11.726562 22.828125 7.945312 22.828125 7.945312 C 22.828125 2.820312 19.527344 1.316406 19.527344 1.316406 C 17.90625 0.558594 14.910156 0.207031 11.9375 0.21875 Z M 8.757812 4.125 C 9.773438 4.152344 10.78125 4.609375 11.402344 5.574219 L 12 6.589844 L 12.601562 5.574219 C 13.84375 3.636719 16.636719 3.757812 17.964844 5.253906 C 19.1875 6.679688 18.914062 7.601562 18.914062 13.96875 L 16.507812 13.96875 L 16.507812 8.429688 C 16.507812 5.835938 13.199219 5.734375 13.199219 8.789062 L 13.199219 12 L 10.804688 12 L 10.804688 8.789062 C 10.804688 5.734375 7.5 5.832031 7.5 8.429688 L 7.5 13.96875 L 5.085938 13.96875 C 5.085938 7.597656 4.820312 6.671875 6.039062 5.253906 C 6.707031 4.5 7.738281 4.097656 8.757812 4.125 Z M 8.757812 4.125 "/>
</g>
</svg>
